<?xml version="1.0" standalone="no"?>
<!DOCTYPE svg PUBLIC "-//W3C//DTD SVG 20010904//EN"
 "http://www.w3.org/TR/2001/REC-SVG-20010904/DTD/svg10.dtd">
<svg version="1.0" xmlns="http://www.w3.org/2000/svg"
 width="512.000000pt" height="512.000000pt" viewBox="0 0 512.000000 512.000000"
 preserveAspectRatio="xMidYMid meet">

<g transform="translate(0.000000,512.000000) scale(0.100000,-0.100000)"
fill="#880808" stroke="none">
<path d="M2463 4507 c-93 -35 -174 -128 -221 -258 l-27 -74 -3 -609 c-3 -531
-1 -620 13 -690 29 -146 107 -265 207 -318 61 -32 175 -32 237 1 97 51 177
170 206 309 22 100 21 1216 0 1317 -32 149 -129 284 -229 318 -57 19 -136 21
-183 4z"/>
<path d="M1555 4221 c-155 -41 -440 -303 -617 -566 -312 -463 -414 -1034 -279
-1567 41 -163 82 -271 162 -428 189 -368 475 -653 849 -843 472 -241 1005
-282 1514 -116 128 42 394 177 498 252 279 201 473 425 622 717 434 855 195
1879 -575 2462 -115 87 -210 112 -320 84 -203 -52 -314 -272 -231 -460 29 -64
59 -98 150 -169 149 -115 255 -236 346 -392 174 -299 215 -692 105 -1026 -174
-534 -661 -889 -1219 -889 -630 0 -1161 452 -1265 1080 -22 130 -16 352 14
480 69 301 232 555 476 740 139 106 185 185 185 315 0 179 -135 321 -314 330
-39 3 -84 1 -101 -4z"/>
</g>
</svg>
